<svg id="visual" viewBox="0 0 960 540" width="960" height="540" xmlns="http://www.w3.org/2000/svg" xmlns:xlink="http://www.w3.org/1999/xlink" version="1.1"><rect x="0" y="0" width="960" height="540" fill="#001220"></rect><path d="M0 194L22.8 195.7C45.7 197.3 91.3 200.7 137 201C182.7 201.3 228.3 198.7 274 187.8C319.7 177 365.3 158 411.2 158.5C457 159 503 179 548.8 191.8C594.7 204.7 640.3 210.3 686 205C731.7 199.7 777.3 183.3 823 172.5C868.7 161.7 914.3 156.3 937.2 153.7L960 151L960 0L937.2 0C914.3 0 868.7 0 823 0C777.3 0 731.7 0 686 0C640.3 0 594.7 0 548.8 0C503 0 457 0 411.2 0C365.3 0 319.7 0 274 0C228.3 0 182.7 0 137 0C91.3 0 45.7 0 22.8 0L0 0Z" fill="#fa7268"></path><path d="M0 128L22.8 136.7C45.7 145.3 91.3 162.7 137 162.5C182.7 162.3 228.3 144.7 274 138.7C319.7 132.7 365.3 138.3 411.2 141.3C457 144.3 503 144.7 548.8 144.8C594.7 145 640.3 145 686 145.3C731.7 145.7 777.3 146.3 823 141.3C868.7 136.3 914.3 125.7 937.2 120.3L960 115L960 0L937.2 0C914.3 0 868.7 0 823 0C777.3 0 731.7 0 686 0C640.3 0 594.7 0 548.8 0C503 0 457 0 411.2 0C365.3 0 319.7 0 274 0C228.3 0 182.7 0 137 0C91.3 0 45.7 0 22.8 0L0 0Z" fill="#ef5f67"></path><path d="M0 97L22.8 104.3C45.7 111.7 91.3 126.3 137 127C182.7 127.7 228.3 114.3 274 113.3C319.7 112.3 365.3 123.7 411.2 125.2C457 126.7 503 118.3 548.8 118.3C594.7 118.3 640.3 126.7 686 121.7C731.7 116.7 777.3 98.3 823 98.3C868.7 98.3 914.3 116.7 937.2 125.8L960 135L960 0L937.2 0C914.3 0 868.7 0 823 0C777.3 0 731.7 0 686 0C640.3 0 594.7 0 548.8 0C503 0 457 0 411.2 0C365.3 0 319.7 0 274 0C228.3 0 182.7 0 137 0C91.3 0 45.7 0 22.8 0L0 0Z" fill="#e34c67"></path><path d="M0 59L22.8 58.5C45.7 58 91.3 57 137 64.5C182.7 72 228.3 88 274 94.7C319.7 101.3 365.3 98.7 411.2 96.8C457 95 503 94 548.8 93.3C594.7 92.7 640.3 92.3 686 85.5C731.7 78.7 777.3 65.3 823 65.8C868.7 66.3 914.3 80.7 937.2 87.8L960 95L960 0L937.2 0C914.3 0 868.7 0 823 0C777.3 0 731.7 0 686 0C640.3 0 594.7 0 548.8 0C503 0 457 0 411.2 0C365.3 0 319.7 0 274 0C228.3 0 182.7 0 137 0C91.3 0 45.7 0 22.8 0L0 0Z" fill="#d53867"></path><path d="M0 54L22.8 56C45.7 58 91.3 62 137 61.5C182.7 61 228.3 56 274 54.7C319.7 53.3 365.3 55.7 411.2 55.8C457 56 503 54 548.8 52.5C594.7 51 640.3 50 686 45C731.7 40 777.3 31 823 31.3C868.7 31.7 914.3 41.3 937.2 46.2L960 51L960 0L937.2 0C914.3 0 868.7 0 823 0C777.3 0 731.7 0 686 0C640.3 0 594.7 0 548.8 0C503 0 457 0 411.2 0C365.3 0 319.7 0 274 0C228.3 0 182.7 0 137 0C91.3 0 45.7 0 22.8 0L0 0Z" fill="#c62368"></path></svg>